<?xml version="1.0" encoding="UTF-8" standalone="no"?>
<svg
   version="1.1"
   id="svg110"
   xml:space="preserve"
   width="526.86133"
   height="526.86121"
   viewBox="0 0 526.86133 526.86121"
   sodipodi:docname="favicon.svg"
   inkscape:version="1.3.2 (1:1.3.2+202311252150+091e20ef0f)"
   inkscape:export-filename="apple-touch-icon.png"
   inkscape:export-xdpi="32.798004"
   inkscape:export-ydpi="32.798004"
   xmlns:inkscape="http://www.inkscape.org/namespaces/inkscape"
   xmlns:sodipodi="http://sodipodi.sourceforge.net/DTD/sodipodi-0.dtd"
   xmlns="http://www.w3.org/2000/svg"
   xmlns:svg="http://www.w3.org/2000/svg"
   xmlns:rdf="http://www.w3.org/1999/02/22-rdf-syntax-ns#"
   xmlns:cc="http://creativecommons.org/ns#"
   xmlns:dc="http://purl.org/dc/elements/1.1/"><metadata
     id="metadata116"><rdf:RDF><cc:Work
         rdf:about=""><dc:format>image/svg+xml</dc:format><dc:type
           rdf:resource="http://purl.org/dc/dcmitype/StillImage" /></cc:Work></rdf:RDF></metadata><defs
     id="defs114"><clipPath
       clipPathUnits="userSpaceOnUse"
       id="clipPath126"><path
         d="M 0,395.146 H 395.146 V 0 H 0 Z"
         id="path124" /></clipPath><clipPath
       clipPathUnits="userSpaceOnUse"
       id="clipPath138"><path
         d="M 0,395.146 H 395.146 V 0 H 0 Z"
         id="path136" /></clipPath></defs><sodipodi:namedview
     pagecolor="#ffffff"
     bordercolor="#666666"
     borderopacity="1"
     objecttolerance="10"
     gridtolerance="10"
     guidetolerance="10"
     inkscape:pageopacity="0"
     inkscape:pageshadow="2"
     inkscape:window-width="1656"
     inkscape:window-height="1016"
     id="namedview112"
     showgrid="false"
     fit-margin-top="0"
     fit-margin-left="0"
     fit-margin-right="0"
     fit-margin-bottom="0"
     inkscape:zoom="0.85895152"
     inkscape:cx="289.8883"
     inkscape:cy="406.30931"
     inkscape:window-x="72"
     inkscape:window-y="27"
     inkscape:window-maximized="1"
     inkscape:current-layer="g118"
     inkscape:showpageshadow="2"
     inkscape:pagecheckerboard="0"
     inkscape:deskcolor="#d1d1d1" /><g
     id="g118"
     inkscape:groupmode="layer"
     inkscape:label="PageKey Logo"
     transform="matrix(1.3333333,0,0,-1.3333333,0,526.86132)"><g
       id="g120"><g
         id="g122"
         clip-path="url(#clipPath126)"><g
           id="g128"
           transform="translate(132.4571,395.1461)"><path
             d="m 0,0 h 65.116 83.232 83.232 c 4.295,0 8.387,-0.871 12.109,-2.445 3.722,-1.574 7.074,-3.852 9.888,-6.667 2.815,-2.814 5.093,-6.166 6.667,-9.888 1.574,-3.722 2.445,-7.814 2.445,-12.109 v -83.232 -83.232 -83.232 -83.232 c 0,-4.296 -0.871,-8.387 -2.445,-12.109 -1.574,-3.722 -3.852,-7.074 -6.667,-9.889 -2.814,-2.814 -6.166,-5.092 -9.888,-6.666 -3.722,-1.575 -7.814,-2.445 -12.109,-2.445 h -83.232 -83.232 -83.232 -83.232 c -4.296,0 -8.388,0.87 -12.109,2.445 -3.722,1.574 -7.074,3.852 -9.889,6.666 -2.814,2.815 -5.092,6.167 -6.666,9.889 -1.575,3.722 -2.445,7.813 -2.445,12.109 v 83.232 83.232 70.811"
             style="fill:#2c3e50;fill-opacity:1;fill-rule:nonzero;stroke:none"
             id="path130" /></g></g></g><g
       id="g132"><g
         id="g134"
         clip-path="url(#clipPath138)"><g
           id="g140"
           transform="translate(197.5731,312.7328)"><path
             d="m 0,0 c -13.066,0 -23.657,10.592 -23.657,23.657 0,13.066 10.591,23.658 23.657,23.658 13.066,0 23.657,-10.592 23.657,-23.658 C 23.657,10.592 13.066,0 0,0 m 5.953,-302.32 22.87,18.943 v 169.001 c 0,0 31.572,5.943 4.457,20.429 -2.228,7.057 1.144,10.708 1.144,10.708 h -0.03 c 27.778,12.966 47.035,41.132 47.035,73.81 0,44.973 -36.457,81.43 -81.429,81.43 -44.972,0 -81.43,-36.457 -81.43,-81.43 0,-34.147 21.028,-63.366 50.833,-75.463 l -0.036,-0.001 c 0,0 5.544,-5.34 0,-11.282 -7.03,-1.471 -24.116,-10.772 0,-16.715 9.684,-10.4 4.213,-27.784 6.976,-30.457 2.762,-2.674 5.133,-8.695 5.133,-8.695 0,0 -7.604,-12.849 0,-15.449 7.604,-2.6 6.861,-16.343 6.861,-16.343 0,0 -3.343,-8.914 -8.172,-16.343 -4.828,-7.428 7.429,-5.943 6.686,-10.028 -0.743,-4.086 -10.508,-15.229 -10.508,-15.229 0,0 -1.006,-4.457 4.565,-9.657 5.572,-5.2 -4.565,-8.543 -4.565,-8.543 0,0 -0.635,-5.943 4.565,-13 l 5.2,-7.057 c 0,0 1.115,-5.201 -2.228,-5.572 -3.343,-0.371 -3.343,-6.686 1.857,-10.029 5.2,-3.343 0.743,-4.457 0.743,-4.457 z"
             style="fill:#e57d24;fill-opacity:1;fill-rule:nonzero;stroke:none"
             id="path142" /></g><g
           id="g144"
           transform="translate(0,268.3839)"><path
             d="M 0,0 H 132.457 V 126.762 Z"
             style="fill:#94a4a5;fill-opacity:1;fill-rule:nonzero;stroke:none"
             id="path146" /></g></g></g></g></svg>
