<?xml version="1.0" standalone="no"?>
<!DOCTYPE svg PUBLIC "-//W3C//DTD SVG 20010904//EN"
 "http://www.w3.org/TR/2001/REC-SVG-20010904/DTD/svg10.dtd">
<svg version="1.0" xmlns="http://www.w3.org/2000/svg"
 width="396.000000pt" height="396.000000pt" viewBox="0 0 396.000000 396.000000"
 preserveAspectRatio="xMidYMid meet">
<metadata>
Created by potrace 1.14, written by Peter Selinger 2001-2017
</metadata>
<g transform="translate(0.000000,396.000000) scale(0.100000,-0.100000)"
fill="#000000" stroke="none">
<path d="M1330 3746 l0 -214 68 70 c231 239 576 312 890 187 95 -37 172 -88
250 -163 122 -117 195 -242 233 -404 28 -116 23 -311 -11 -417 -64 -202 -181
-351 -360 -463 -41 -25 -78 -51 -82 -57 -4 -5 -8 -28 -8 -50 0 -37 4 -42 45
-69 97 -61 85 -121 -32 -162 l-53 -19 0 -842 0 -842 -115 -97 -116 -97 -92 89
c-51 49 -91 96 -90 105 1 9 -11 29 -27 44 -36 34 -40 79 -10 95 30 16 24 48
-19 110 -21 30 -44 73 -50 94 -10 38 -9 40 26 71 l37 32 -31 39 c-50 64 -50
76 0 141 78 102 80 117 17 143 -17 7 -30 18 -30 25 0 7 20 51 45 96 35 66 45
94 45 132 0 61 -24 113 -61 133 -38 19 -45 53 -24 112 l17 48 -31 58 c-27 51
-31 69 -31 135 0 131 -27 185 -105 210 -104 34 -97 91 17 140 35 15 49 27 54
46 11 43 -10 71 -78 104 -135 67 -252 174 -334 309 l-41 67 -622 3 -621 2 2
-1217 c3 -1395 -5 -1271 97 -1374 104 -103 -85 -94 1881 -94 1966 0 1777 -9
1881 94 103 104 94 -85 94 1881 0 1638 -1 1717 -18 1768 -26 74 -102 155 -175
184 l-57 23 -1187 3 -1188 2 0 -214z"/>
<path d="M1875 3579 c-115 -59 -164 -202 -108 -314 42 -83 118 -129 213 -129
161 0 271 144 226 297 -30 104 -115 167 -226 167 -46 0 -77 -6 -105 -21z"/>
</g>
</svg>
