<?xml version="1.0" encoding="UTF-8" standalone="no"?>
<svg
   width="1920"
   height="1080"
   version="1.1"
   viewBox="0 0 1920 1080"
   xml:space="preserve"
   id="svg46"
   sodipodi:docname="boom-v1.0-writeup.svg"
   inkscape:version="1.3.2 (1:1.3.2+202311252150+091e20ef0f)"
   xmlns:inkscape="http://www.inkscape.org/namespaces/inkscape"
   xmlns:sodipodi="http://sodipodi.sourceforge.net/DTD/sodipodi-0.dtd"
   xmlns="http://www.w3.org/2000/svg"
   xmlns:svg="http://www.w3.org/2000/svg"
   xmlns:rdf="http://www.w3.org/1999/02/22-rdf-syntax-ns#"
   xmlns:cc="http://creativecommons.org/ns#"
   xmlns:dc="http://purl.org/dc/elements/1.1/"><sodipodi:namedview
     id="namedview46"
     pagecolor="#ffffff"
     bordercolor="#666666"
     borderopacity="1.0"
     inkscape:showpageshadow="2"
     inkscape:pageopacity="0.0"
     inkscape:pagecheckerboard="0"
     inkscape:deskcolor="#d1d1d1"
     inkscape:zoom="0.47816839"
     inkscape:cx="1005.9218"
     inkscape:cy="679.67688"
     inkscape:window-width="1848"
     inkscape:window-height="1016"
     inkscape:window-x="72"
     inkscape:window-y="27"
     inkscape:window-maximized="1"
     inkscape:current-layer="svg46" /><metadata
     id="metadata1"><rdf:RDF><cc:Work
         rdf:about=""><dc:format>image/svg+xml</dc:format><dc:type
           rdf:resource="http://purl.org/dc/dcmitype/StillImage" /></cc:Work></rdf:RDF></metadata><defs
     id="defs7"><clipPath
       id="clipPath18"><path
         d="M 0,1080 H 1920 V 0 H 0 Z"
         id="path1" /></clipPath><clipPath
       id="clipPath42"><path
         d="m 460.63,520.64 c 0,-96.828 78.495,-175.32 175.32,-175.32 96.83,0 175.32,78.495 175.32,175.32 0,96.83 -78.495,175.33 -175.32,175.33 -96.829,0 -175.32,-78.496 -175.32,-175.33"
         id="path2" /></clipPath><clipPath
       id="clipPath54"><path
         d="m 460.63,520.64 c 0,-96.828 78.495,-175.32 175.32,-175.32 96.83,0 175.32,78.495 175.32,175.32 0,96.83 -78.495,175.33 -175.32,175.33 -96.829,0 -175.32,-78.496 -175.32,-175.33"
         id="path3" /></clipPath><clipPath
       id="clipPath62"><path
         d="m 572.25,734.76 h 309.6 V 336.42 h -309.6 z"
         id="path4" /></clipPath><clipPath
       id="clipPath78"><path
         d="M 0,1080 H 1920 V 0 H 0 Z"
         id="path5" /></clipPath><clipPath
       id="clipPath106"><path
         d="m 530.87,510.46 c 0,0 18.952,-149.19 159.98,-104.48 44.62,14.147 70.739,136.04 70.739,136.04 -80.329,-87.608 -230.72,-31.56 -230.72,-31.56"
         id="path6" /></clipPath><clipPath
       id="clipPath122"><path
         d="M 0,1080 H 1920 V 0 H 0 Z"
         id="path7" /></clipPath></defs><rect
     style="fill:#ffffff;stroke-width:12"
     id="rect1"
     width="1960.3699"
     height="1126.506"
     x="-19.329428"
     y="-25.619867" /><g
     transform="matrix(1.3333,0,0,-1.3333,-210.3546,1235.7016)"
     id="g46"><g
       clip-path="url(#clipPath18)"
       id="g12"><g
         transform="translate(1382,651.33)"
         id="g8"><path
           d="m 0,0 h -765.2 c -34.631,0 -62.705,-28.075 -62.705,-62.706 v -145.68 c 0,-34.632 28.074,-62.706 62.705,-62.706 H 0 c 34.632,0 62.706,28.074 62.706,62.706 v 145.68 C 62.706,-28.075 34.632,0 0,0"
           fill-opacity="0"
           id="path8" /></g><g
         transform="translate(512.04,670.05)"
         id="g9"><path
           d="m 0,0 c -0.144,0.289 -14.627,28.976 -36.668,34.087 -10.033,2.326 -20.237,-0.624 -31.195,-9.02 -31.231,-23.931 -52.116,-11.771 -59.646,-5.432 -17.815,14.998 -24.053,47.723 -13.087,68.659 l 17.717,-9.28 c -5.95,-11.359 -3.258,-34.39 8.251,-44.079 10.539,-8.872 24.632,-1.631 34.601,6.007 15.81,12.113 31.952,16.353 47.976,12.605 C -0.774,46.228 17.187,10.371 17.937,8.848 Z"
           fill="#d3d090"
           id="path9" /></g><g
         transform="translate(535.42,711.88)"
         id="g10"><path
           d="m 0,0 -53.479,-42.294 c -5.766,-4.56 -6.744,-12.932 -2.184,-18.699 l 18.126,-22.919 c 4.561,-5.767 12.933,-6.744 18.699,-2.184 l 53.479,42.294 c 5.766,4.561 6.744,12.932 2.183,18.698 L 18.698,-2.184 C 14.138,3.583 5.767,4.56 0,0"
           fill="#414072"
           id="path10" /></g><g
         transform="translate(811.27,520.64)"
         id="g11"><path
           d="m 0,0 c 0,96.83 -78.495,175.32 -175.32,175.32 -96.829,0 -175.32,-78.495 -175.32,-175.32 0,-96.829 78.495,-175.32 175.32,-175.32 C -78.49,-175.32 0,-96.825 0,0"
           fill="#5d5da0"
           id="path11" /></g></g><g
       clip-path="url(#clipPath42)"
       id="g14"><g
         transform="translate(494.46,653.54)"
         id="g13"><path
           d="m 0,0 c -117.04,-109.99 -431.76,-467.3 138.86,-327.86 6.703,1.638 7.109,11.03 0.564,13.212 -61.586,20.531 -210.14,122.76 -125.54,304.6 4.05,8.705 -6.889,16.621 -13.886,10.046"
           fill="#4b4b96"
           id="path12" /></g></g><g
       clip-path="url(#clipPath54)"
       id="g17"><g
         clip-path="url(#clipPath62)"
         opacity="0.25"
         id="g16"><g
           transform="translate(572.25,686.78)"
           id="g15"><path
             d="M 0,0 C 0,0 254.64,47.327 251.92,-260.12 249.2,-567.56 309.6,9.18 309.6,9.18 309.6,9.18 69.13,102.308 0,-0.006"
             fill="#a5a5ef"
             id="path14" /></g></g></g><g
       clip-path="url(#clipPath78)"
       id="g23"><g
         transform="translate(384.36,762.29)"
         id="g18"><path
           d="M 0,0 21.631,55.415 -7.43,4.616 l -11.914,30.74 5.484,-33.809 -41.476,0.896 37.221,-9.789 -15.922,-45.169 26.201,36.618 16.895,-43.594 -8.874,51.577 65.517,-18.8 z"
           fill="#ffffff"
           id="path17" /></g><g
         transform="translate(367.25,752.79)"
         id="g19"><path
           d="M 0,0 -40.195,-43.853 5.26,-6.989 V -39.957 L 12.365,-6.451 50.714,-22.275 19.545,0.303 50.714,36.667 13.052,11.991 V 58.745 L 2.688,7.446 -51.608,48.652 Z"
           fill="#fffda4"
           id="path18" /></g><g
         transform="translate(608.16,515.57)"
         id="g20"><path
           d="m 0,0 c -8.284,0 -15,6.716 -15,15 0,28.571 -24.446,44.106 -25.487,44.753 -7.09,4.285 -9.325,13.482 -5.04,20.572 4.285,7.091 13.546,9.341 20.636,5.055 C -23.262,84.396 15,60.748 15,15 15,6.716 8.284,0 0,0"
           fill="#ffffff"
           id="path19" /></g><g
         transform="translate(713.91,620.88)"
         id="g21"><path
           d="M 0,0 C -1.495,-1.776 -2.781,-3.464 -4.034,-5.104 -4.642,-5.952 -5.267,-6.719 -5.827,-7.571 L -6.7,-8.761 c -0.279,-0.409 -0.54,-0.837 -0.825,-1.223 -2.194,-3.209 -4.165,-6.331 -6.038,-9.411 -0.869,-1.612 -1.846,-3.073 -2.661,-4.674 -0.426,-0.783 -0.889,-1.526 -1.302,-2.311 -0.41,-0.79 -0.806,-1.583 -1.239,-2.348 -0.879,-1.517 -1.574,-3.174 -2.438,-4.704 -0.781,-1.59 -1.524,-3.214 -2.355,-4.787 l -10.148,14.017 c 7.092,0.621 14.276,0.668 21.522,0.006 3.624,-0.327 7.273,-0.872 10.946,-1.619 1.837,-0.378 3.679,-0.8 5.532,-1.314 0.923,-0.236 1.856,-0.527 2.778,-0.793 0.445,-0.151 0.959,-0.265 1.299,-0.412 0.005,-0.014 0.035,-0.018 0.009,-0.046 -0.003,-0.012 -0.004,-0.016 -0.066,-0.072 -0.031,-0.033 -0.022,-0.026 -0.077,-0.095 -0.081,-0.101 -0.13,-0.248 -0.127,-0.374 -0.022,-0.16 0.096,-0.397 0.188,-0.466 0.035,-0.032 0.076,-0.06 0.119,-0.081 0.108,-0.046 0.061,-0.014 0.099,-0.022 0.037,0.006 0.008,0.027 0.01,0.042 -0.051,0.072 -0.16,0.135 -0.257,0.206 -0.205,0.14 -0.428,0.272 -0.651,0.402 0.225,0.129 0.449,0.257 0.692,0.374 0.125,0.058 0.24,0.109 0.409,0.144 0.057,0.003 0.085,0.016 0.175,0.004 0.063,-0.018 0.045,0.01 0.175,-0.053 0.055,-0.028 0.108,-0.064 0.154,-0.104 0.101,-0.08 0.222,-0.332 0.207,-0.504 C 9.427,-29.117 9.371,-29.276 9.284,-29.39 9.22,-29.47 9.217,-29.47 9.176,-29.512 L 9.038,-29.627 8.894,-29.74 c -0.512,-0.424 -0.886,-0.679 -1.319,-0.997 -0.84,-0.578 -1.678,-1.134 -2.525,-1.626 -1.689,-1.023 -3.396,-1.909 -5.109,-2.739 -3.428,-1.647 -6.887,-3.036 -10.372,-4.19 -6.975,-2.309 -14.018,-3.837 -21.16,-4.744 l -17.93,-2.276 7.781,16.293 c 0.97,2.032 1.915,4.075 3.029,6.041 0.59,0.97 1.173,1.943 1.791,2.894 l 0.916,1.43 1.026,1.369 c 0.682,0.915 1.398,1.803 2.103,2.694 0.725,0.877 1.539,1.698 2.314,2.534 1.531,1.683 3.329,3.161 5.06,4.63 3.64,2.803 7.637,5.147 11.955,6.697 2.141,0.792 4.379,1.364 6.646,1.702 C -4.635,0.294 -2.308,0.43 0,0"
           fill="#ffffff"
           id="path20" /></g><g
         transform="translate(530.87,510.46)"
         id="g22"><path
           d="m 0,0 c 0,0 150.39,-56.048 230.718,31.56 0,0 -26.119,-121.889 -70.739,-136.037 C 18.951,-149.193 0,0 0,0"
           fill="#414072"
           id="path21" /></g></g><g
       clip-path="url(#clipPath106)"
       id="g26"><g
         transform="translate(521,496.31)"
         id="g24"><path
           d="M 0,0 C 0,0 149.17,-71.283 240.59,16.324 L 246.032,63.031 -8.628,34.26 Z"
           fill="#ffffff"
           id="path23" /></g><g
         transform="translate(563.52,413.6)"
         id="g25"><path
           d="m 0,0 c 0,0 39.94,16.123 63.122,14.147 11.058,-0.942 19.588,0.212 37.569,-7.571 4.037,-1.748 1.438,3.079 -3.55,5.19 -10.114,4.277 -22.669,4.642 10.378,4.642 37.4,0 44.292,-6.613 51.641,-24.026 C 166.509,-25.031 18.83,-51.172 0,0"
           fill="#768ab5"
           id="path24" /></g></g><g
       clip-path="url(#clipPath122)"
       id="g40"><g
         transform="translate(878.7,561.95)"
         id="g27"><path
           d="m 0,0 v -24.149 h 8.4 c 12.299,0 15.749,4.35 15.749,11.85 C 24.149,-3.75 18.899,0 8.25,0 Z M 0,41.548 V 19.799 h 6.9 c 10.499,0 15.9,3.3 15.9,10.8 0,7.349 -3.45,10.949 -15.45,10.949 z m 17.85,-88.796 h -46.949 v 111.9 H 14.7 c 25.349,0 33.899,-12.749 33.899,-29.698 0,-8.55 -4.35,-16.949 -12.15,-22.65 10.799,-5.849 16.949,-16.349 16.949,-28.198 0,-16.35 -11.7,-31.349 -35.548,-31.349"
           fill="#0d2247"
           id="path26" /></g><g
         transform="translate(972.15,570.65)"
         id="g28"><path
           d="m 0,0 c 0,-18.299 14.099,-32.849 32.998,-32.849 18.6,0 32.849,14.55 32.849,32.849 0,18.449 -14.249,32.849 -32.849,32.849 C 14.099,32.849 0,18.449 0,0 m 95.096,0.15 c 0,-32.999 -27.299,-59.697 -62.098,-59.697 -35.099,0 -62.247,26.698 -62.247,59.697 0,32.849 27.148,59.397 62.247,59.397 34.799,0 62.098,-26.548 62.098,-59.397"
           fill="#0d2247"
           id="path27" /></g><g
         transform="translate(1106.8,570.65)"
         id="g29"><path
           d="m 0,0 c 0,-18.299 14.099,-32.849 32.998,-32.849 18.6,0 32.849,14.55 32.849,32.849 0,18.449 -14.249,32.849 -32.849,32.849 C 14.099,32.849 0,18.449 0,0 m 95.096,0.15 c 0,-32.999 -27.299,-59.697 -62.098,-59.697 -35.099,0 -62.247,26.698 -62.247,59.697 0,32.849 27.148,59.397 62.247,59.397 34.799,0 62.098,-26.548 62.098,-59.397"
           fill="#0d2247"
           id="path28" /></g><g
         transform="translate(1245,514.7)"
         id="g30"><path
           d="M 0,0 H -28.799 V 111.9 H 1.05 L 33.898,67.202 64.947,111.9 H 94.496 V 0 H 65.697 v 57.297 l 0.151,7.65 -31.2,-43.049 h -2.25 L -0.149,65.397 0,57.447 Z"
           fill="#0d2247"
           id="path29" /></g><path
         d="m 1361.8,539.15 h 29.849 V 514.701 H 1361.8 Z m 3.45,9.899 -5.1,77.547 h 33.149 l -4.95,-77.547 z"
         fill="#0d2247"
         id="path30" /><path
         d="m 869.67,419.87 h -19.443 v 86.169 h 19.443 z"
         fill="#0d2247"
         id="path31" /><g
         transform="translate(912.21,435.67)"
         id="g32"><path
           d="m 0,0 c 0,3.535 -2.541,6.518 -6.739,6.518 -4.308,0 -7.07,-2.983 -7.07,-6.518 0,-3.866 2.762,-7.07 7.07,-7.07 C -2.651,-7.07 0,-4.088 0,0 m 1.437,-10.385 c -3.315,-3.976 -8.618,-7.291 -16.351,-7.291 -11.71,0 -18.78,7.402 -18.78,17.345 0,9.5 7.07,17.233 19.664,17.233 6.076,0 10.716,-1.547 13.92,-3.867 v 2.21 c 0,7.844 -4.309,10.053 -11.932,10.053 -3.203,0 -7.07,-0.552 -13.588,-1.878 l -0.221,15.687 c 6.85,1.326 11.379,1.768 18.339,1.768 17.565,0 26.955,-8.175 26.955,-20.99 V -15.798 H 1.437 Z"
           fill="#0d2247"
           id="path32" /></g><g
         transform="translate(962.14,419.87)"
         id="g33"><path
           d="m 0,0 h -19.664 v 55.236 h 18.56 v -7.18 c 3.093,3.867 9.28,8.507 18.228,8.507 10.826,0 19.554,-7.734 19.554,-20.438 V 0 H 17.124 v 30.159 c 0,6.518 -3.535,9.059 -8.396,9.059 C 4.309,39.218 0,35.903 0,31.153 Z"
           fill="#0d2247"
           id="path33" /></g><g
         transform="translate(1050.7,448.93)"
         id="g34"><path
           d="m 0,0 c 0,6.297 -5.192,11.268 -11.379,11.268 -6.076,0 -11.158,-4.971 -11.158,-11.268 0,-6.187 5.082,-10.938 11.158,-10.938 C -5.192,-10.938 0,-6.187 0,0 m -13.81,-53.248 c -6.296,0 -12.262,0.441 -18.449,1.768 v 17.123 c 6.519,-1.437 11.822,-1.878 17.786,-1.878 9.06,0 14.252,2.541 14.252,12.373 v 4.087 c -4.419,-4.75 -10.384,-7.843 -17.013,-7.843 -13.147,0 -25.851,10.716 -25.851,27.618 0,17.454 12.594,28.281 25.851,28.171 7.292,0 13.588,-3.647 18.007,-8.949 v 6.96 h 18.56 c 0,-14.803 -0.11,-42.753 -0.11,-49.271 0,-20.659 -9.501,-30.159 -33.033,-30.159"
           fill="#0d2247"
           id="path34" /></g><g
         transform="translate(1118.6,427.28)"
         id="g35"><path
           d="m 0,0 c -3.094,-3.977 -9.28,-8.728 -18.118,-8.728 -10.826,0 -19.664,7.734 -19.664,20.439 v 36.124 h 19.553 V 17.676 c 0,-6.518 3.425,-9.059 8.397,-9.059 4.419,0 8.838,3.315 8.838,8.065 V 47.835 H 18.449 V -7.401 H 0 Z"
           fill="#0d2247"
           id="path35" /></g><g
         transform="translate(1179.3,435.67)"
         id="g36"><path
           d="m 0,0 c 0,3.535 -2.541,6.518 -6.739,6.518 -4.309,0 -7.071,-2.983 -7.071,-6.518 0,-3.866 2.762,-7.07 7.071,-7.07 C -2.651,-7.07 0,-4.088 0,0 m 1.436,-10.385 c -3.314,-3.976 -8.617,-7.291 -16.35,-7.291 -11.71,0 -18.78,7.402 -18.78,17.345 0,9.5 7.07,17.233 19.664,17.233 6.076,0 10.716,-1.547 13.92,-3.867 v 2.21 c 0,7.844 -4.309,10.053 -11.932,10.053 -3.203,0 -7.07,-0.552 -13.588,-1.878 l -0.221,15.687 c 6.849,1.326 11.378,1.768 18.338,1.768 17.566,0 26.956,-8.175 26.956,-20.99 V -15.798 H 1.436 Z"
           fill="#0d2247"
           id="path36" /></g><g
         transform="translate(1250.9,448.93)"
         id="g37"><path
           d="m 0,0 c 0,6.297 -5.192,11.268 -11.379,11.268 -6.076,0 -11.158,-4.971 -11.158,-11.268 0,-6.187 5.082,-10.938 11.158,-10.938 C -5.192,-10.938 0,-6.187 0,0 m -13.81,-53.248 c -6.296,0 -12.262,0.441 -18.449,1.768 v 17.123 c 6.519,-1.437 11.822,-1.878 17.787,-1.878 9.059,0 14.251,2.541 14.251,12.373 v 4.087 c -4.419,-4.75 -10.384,-7.843 -17.013,-7.843 -13.146,0 -25.851,10.716 -25.851,27.618 0,17.454 12.594,28.281 25.851,28.171 7.292,0 13.588,-3.647 18.007,-8.949 v 6.96 h 18.56 c 0,-14.803 -0.11,-42.753 -0.11,-49.271 0,-20.659 -9.501,-30.159 -33.033,-30.159"
           fill="#0d2247"
           id="path37" /></g><g
         transform="translate(1299.4,453.46)"
         id="g38"><path
           d="M 0,0 H 22.095 C 20.548,5.523 16.792,8.617 10.937,8.617 5.192,8.617 1.547,5.523 0,0 m 14.582,-36.125 c -22.205,0 -34.799,12.483 -34.799,30.159 0,17.897 12.704,30.159 31.596,30.159 17.013,0 29.938,-12.704 29.938,-30.38 V -11.6 H -0.221 c 1.657,-6.629 7.071,-9.501 15.356,-9.501 6.849,0 11.71,2.21 15.687,5.524 l 10.385,-11.489 c -5.966,-5.192 -14.693,-9.059 -26.625,-9.059"
           fill="#0d2247"
           id="path38" /></g><g
         transform="translate(1384.5,475.11)"
         id="g39"><path
           d="m 0,0 v -15.798 c -4.75,1.989 -9.279,2.652 -11.269,2.652 -2.872,0 -4.307,-0.773 -4.307,-2.209 0,-1.327 1.988,-2.762 5.965,-5.414 11.821,-8.064 15.024,-12.815 15.024,-19.333 0,-9.279 -7.844,-16.902 -22.646,-17.012 -5.746,0 -12.263,1.325 -16.792,2.982 v 15.798 c 5.523,-2.431 10.605,-3.535 13.698,-3.535 3.425,-0.11 4.64,1.104 4.64,2.541 0,1.326 -1.326,2.651 -7.512,6.849 -11.158,7.292 -12.926,12.042 -12.926,18.118 0,8.507 6.408,16.461 22.647,16.239 C -8.175,1.878 -3.535,1.216 0,0"
           fill="#0d2247"
           id="path39" /></g></g><path
       d="m 1293.3,410.01 h 74.25 c 16.36,0 29.531,-13.171 29.531,-29.531 0,-16.36 -13.171,-29.531 -29.531,-29.531 h -74.25 c -16.36,0 -29.531,13.171 -29.531,29.531 0,16.36 13.171,29.531 29.531,29.531 z"
       fill-rule="evenodd"
       stroke-width="0.75"
       id="path40" /><g
       fill="#ffffff"
       id="g45"><path
         d="m 1297.4,369.44 h -3.6107 v 2.2977 q -0.4827,-0.32824 -1.313,-0.92681 -0.811,-0.57926 -1.5833,-0.92682 -0.9075,-0.44409 -2.0854,-0.73372 -1.1778,-0.30894 -2.7611,-0.30894 -2.9156,0 -4.943,1.9309 -2.0274,1.9309 -2.0274,4.9237 0,2.4522 1.0426,3.9583 1.062,1.5254 3.0122,2.3943 1.9695,0.86889 4.7306,1.1778 2.7612,0.30894 5.9278,0.4634 v 0.55996 q 0,1.2358 -0.4441,2.0467 -0.4248,0.81096 -1.2358,1.2744 -0.7723,0.4441 -1.8536,0.59857 -1.0813,0.15447 -2.2591,0.15447 -1.4289,0 -3.186,-0.38617 -1.757,-0.36687 -3.63,-1.0813 h -0.1931 v 3.688 q 1.062,0.28963 3.0701,0.63719 2.0081,0.34755 3.9583,0.34755 2.2784,0 3.9583,-0.38617 1.6991,-0.36686 2.9349,-1.2744 1.2164,-0.8882 1.8536,-2.2977 0.6372,-1.4095 0.6372,-3.4949 z m -3.6107,5.3099 v 6.005 q -1.6606,-0.0965 -3.9197,-0.28963 -2.2398,-0.19309 -3.5528,-0.55995 -1.564,-0.4441 -2.5294,-1.3902 -0.9654,-0.92682 -0.9654,-2.568 0,-1.8536 1.1199,-2.7998 1.1199,-0.92682 3.4176,-0.92682 1.9115,0 3.4949,0.73373 1.5833,0.75304 2.9349,1.7957 z"
         id="path41" /><path
         d="m 1308.1,369.44 h -3.6301 v 30.044 h 3.6301 z"
         id="path42" /><path
         d="m 1334.2,380.48 q 0,-2.626 -0.7531,-4.8078 -0.753,-2.1626 -2.1239,-3.6686 -1.2744,-1.4288 -3.0122,-2.2205 -1.7184,-0.77234 -3.6493,-0.77234 -1.6799,0 -3.0508,0.36686 -1.3516,0.36686 -2.7611,1.1392 v -9.0364 h -3.63 v 29.523 h 3.63 v -2.2591 q 1.4481,1.2164 3.2438,2.0274 1.8151,0.83027 3.8618,0.83027 3.9003,0 6.0629,-2.9542 2.1819,-2.9349 2.1819,-8.1676 z m -3.7459,-0.0965 q 0,3.9003 -1.3323,5.8312 -1.3323,1.9309 -4.0934,1.9309 -1.564,0 -3.1473,-0.6758 -1.5834,-0.6758 -3.0315,-1.7764 v -12.222 q 1.5447,-0.69511 2.6453,-0.94612 1.1199,-0.25101 2.5294,-0.25101 3.0315,0 4.7306,2.0467 1.6992,2.0467 1.6992,6.0629 z"
         id="path43" /><path
         d="m 1357.9,369.44 h -3.6301 v 12.28 q 0,1.4868 -0.1737,2.7804 -0.1738,1.313 -0.6372,2.0467 -0.4827,0.81097 -1.3902,1.1971 -0.9075,0.40548 -2.3557,0.40548 -1.4868,0 -3.1087,-0.73373 -1.6219,-0.73373 -3.1087,-1.8729 v -16.103 h -3.63 v 30.044 h 3.63 v -10.871 q 1.6992,1.4095 3.5142,2.2012 1.815,0.79166 3.7266,0.79166 3.4948,0 5.3292,-2.1046 1.8343,-2.1046 1.8343,-6.0629 z"
         id="path44" /><path
         d="m 1381.7,369.44 h -3.6107 v 2.2977 q -0.4827,-0.32824 -1.313,-0.92681 -0.811,-0.57926 -1.5833,-0.92682 -0.9075,-0.44409 -2.0853,-0.73372 -1.1779,-0.30894 -2.7612,-0.30894 -2.9156,0 -4.943,1.9309 -2.0274,1.9309 -2.0274,4.9237 0,2.4522 1.0427,3.9583 1.0619,1.5254 3.0121,2.3943 1.9695,0.86889 4.7306,1.1778 2.7612,0.30894 5.9278,0.4634 v 0.55996 q 0,1.2358 -0.4441,2.0467 -0.4248,0.81096 -1.2358,1.2744 -0.7723,0.4441 -1.8536,0.59857 -1.0813,0.15447 -2.2591,0.15447 -1.4288,0 -3.1859,-0.38617 -1.7571,-0.36687 -3.6301,-1.0813 h -0.193 v 3.688 q 1.0619,0.28963 3.07,0.63719 2.0081,0.34755 3.9583,0.34755 2.2784,0 3.9583,-0.38617 1.6991,-0.36686 2.9349,-1.2744 1.2164,-0.8882 1.8536,-2.2977 0.6372,-1.4095 0.6372,-3.4949 z m -3.6107,5.3099 v 6.005 q -1.6606,-0.0965 -3.9197,-0.28963 -2.2398,-0.19309 -3.5528,-0.55995 -1.564,-0.4441 -2.5294,-1.3902 -0.9654,-0.92682 -0.9654,-2.568 0,-1.8536 1.1199,-2.7998 1.1199,-0.92682 3.4176,-0.92682 1.9116,0 3.4949,0.73373 1.5833,0.75304 2.9349,1.7957 z"
         id="path45" /></g></g></svg>
